<svg xmlns="http://www.w3.org/2000/svg" width="16" height="16" viewBox="0 0 16 16">
    <path fill="#495290" fill-rule="evenodd" d="M13.41 7H15v2h-1.59a5.47 5.47 0 0 1-.878 2.118l1.125 1.125-1.414 1.414-1.125-1.125A5.47 5.47 0 0 1 9 13.409V15H7v-1.59a5.47 5.47 0 0 1-2.118-.878l-1.125 1.125-1.414-1.414 1.125-1.125A5.47 5.47 0 0 1 2.591 9H1V7h1.59a5.47 5.47 0 0 1 .878-2.118L2.343 3.757l1.414-1.414 1.125 1.125A5.47 5.47 0 0 1 7 2.591V1h2v1.59a5.47 5.47 0 0 1 2.118.878l1.125-1.125 1.414 1.414-1.125 1.125A5.47 5.47 0 0 1 13.409 7zM8 11.5a3.5 3.5 0 1 0 0-7 3.5 3.5 0 0 0 0 7zm0-2a1.5 1.5 0 1 1 0-3 1.5 1.5 0 0 1 0 3z"/>
</svg>
