<svg xmlns="http://www.w3.org/2000/svg" width="24" height="24" viewBox="0 0 24 24">
    <path fill="#000" fill-rule="nonzero" d="M8.835 15.994C7.113 15.216 5.502 13.78 4 11.683c2.388-3.333 5.054-5 8-5 .699 0 1.382.094 2.049.281L15.183 5l.866.5-7.5 12.99-.866-.5 1.152-1.996zm4.695-8.13A6.537 6.537 0 0 0 12 7.682c-2.42 0-4.662 1.303-6.753 4 1.303 1.68 2.665 2.82 4.092 3.44l.683-1.184a3 3 0 0 1 2.943-5.097l.565-.979zM12.331 9.94a.999.999 0 0 0-.31.536l.31-.536zm-.081 5.738c2.324-.087 4.484-1.391 6.503-3.995-.865-1.115-1.755-1.992-2.674-2.637l.502-.869c1.197.826 2.337 1.995 3.419 3.506-2.388 3.333-5.054 5-8 5-.11 0-.218-.002-.326-.007l.576-.998zm2.68-4.642a3.001 3.001 0 0 1-2.025 3.508l2.025-3.508z" opacity=".45"/>
</svg>
