<svg xmlns="http://www.w3.org/2000/svg" xmlns:xlink="http://www.w3.org/1999/xlink" width="268" height="195" viewBox="0 0 268 195">
    <defs>
        <circle id="b" cx="206" cy="133" r="38"/>
        <rect id="a" width="216" height="142" x="8" y="8" rx="4"/>
        <mask id="d" width="216" height="142" x="0" y="0" fill="#fff">
            <use xlink:href="#a"/>
        </mask>
    </defs>
    <g fill="none" fill-rule="evenodd">
        <path fill="#000" fill-rule="nonzero" d="M160.294 144c.162.672.337 1.34.527 2H6a6 6 0 0 1-6-6V6a6 6 0 0 1 6-6h208a6 6 0 0 1 6 6v82.12a46.633 46.633 0 0 0-2-.574V17H2v123a4 4 0 0 0 4 4h154.294zM10.5 11a2.5 2.5 0 1 0 0-5 2.5 2.5 0 0 0 0 5zm9 0a2.5 2.5 0 1 0 0-5 2.5 2.5 0 0 0 0 5zm9 0a2.5 2.5 0 1 0 0-5 2.5 2.5 0 0 0 0 5zm57.605 59.734a.5.5 0 1 1-.12-.993c2.135-.26 3.837-1.053 5.124-2.38 1.247-1.286 1.614-2.568 1.151-3.913a.5.5 0 0 1 .946-.325c.593 1.725.116 3.392-1.379 4.933-1.453 1.5-3.367 2.392-5.722 2.678zM91.5 81a2.5 2.5 0 1 1 0-5 2.5 2.5 0 0 1 0 5zm42.395-10.266c-2.355-.286-4.269-1.179-5.722-2.678-1.495-1.541-1.972-3.208-1.38-4.933a.5.5 0 1 1 .947.325c-.463 1.345-.096 2.627 1.15 3.912 1.288 1.328 2.99 2.122 5.126 2.381a.5.5 0 0 1-.12.993zM128.5 81a2.5 2.5 0 1 1 0-5 2.5 2.5 0 0 1 0 5zm-24.146 12.354a.5.5 0 1 1-.708-.708c2.087-2.086 4.207-3.146 6.354-3.146 2.147 0 4.267 1.06 6.354 3.146a.5.5 0 1 1-.708.708C113.733 91.44 111.853 90.5 110 90.5c-1.853 0-3.733.94-5.646 2.854z"/>
        <path fill="#000" fill-rule="nonzero" d="M238.733 162.404l28.39 28.39a2 2 0 1 1-2.828 2.83l-28.368-28.369C228.075 172.544 217.558 177 206 177c-24.3 0-44-19.7-44-44s19.7-44 44-44 44 19.7 44 44c0 11.303-4.262 21.611-11.267 29.404zM206 173c22.091 0 40-17.909 40-40s-17.909-40-40-40-40 17.909-40 40 17.909 40 40 40z"/>
        <mask id="c" fill="#fff">
            <use xlink:href="#b"/>
        </mask>
        <g stroke="#000" stroke-dasharray="1,4" stroke-width="2" mask="url(#c)">
            <use mask="url(#d)" xlink:href="#a"/>
        </g>
    </g>
</svg>
