<svg xmlns="http://www.w3.org/2000/svg" width="250" height="250" viewBox="0 0 36 36">
    <g fill="none" fill-rule="evenodd">
        <circle cx="18" cy="18" r="18" fill="#000"/>
        <path fill="#FFF" fill-rule="nonzero" d="M12.759 19.123C10.6 13.682 8.915 9.128 9.003 9.01c.119-.09 3.638.443 7.807 1.183l7.63 1.39 1.98 1.98 1.953 2.011-5.5 6.713C19.825 25.984 17.194 29 17.016 29c-.177.03-2.07-4.436-4.258-9.877zm4.613 1.981c.266-2.158.444-3.962.384-4.021-.059-.03-1.242-1.006-2.631-2.13-3.933-3.223-3.667-3.075-3.194-1.892.236.562 1.42 3.519 2.632 6.565 1.212 3.016 2.218 5.47 2.247 5.44.03-.029.296-1.803.562-3.962zm4.643-.207c1.892-2.277 3.37-4.17 3.341-4.228-.088-.09-5.855.887-6.032 1.005-.148.089-.917 5.944-.947 6.89 0 .385.06.65.119.592.059-.06 1.656-1.982 3.519-4.259zm1.774-5.47l2.04-.385-.887-.887c-1.005-1.005-1.094-.976-3.312.976-.769.68-.887.887-.443.769.325-.06 1.508-.296 2.602-.473zm-3.312-1.242c1.005-.858 1.715-1.568 1.567-1.627-.976-.236-8.812-1.567-8.99-1.508-.236.089 4.998 4.613 5.383 4.643.088.03 1.005-.65 2.04-1.508z"/>
    </g>
</svg>
